<svg width="40" height="20" viewBox="0 0 40 20" fill="none" xmlns="http://www.w3.org/2000/svg">
<path d="M33.7956 4.02708L39.4099 19.1511L0.745575 19.5771V0.618852L2.65231 2.10996C3.04072 1.75493 3.98702 0.959675 4.66497 0.618852C5.34292 0.278028 8.83154 2.10995 10.4911 3.06851C11.2679 2.8555 13.2029 2.55728 14.7283 3.06851C16.635 3.70756 17.9062 5.62469 18.4358 4.02708C18.9655 2.42947 21.19 4.02708 22.2493 4.02708C23.0967 4.02708 25.9215 3.38803 27.228 3.06851C28.0048 3.77856 29.9186 5.15605 31.3593 4.98564C32.7999 4.81523 33.5838 4.27559 33.7956 4.02708Z" fill="url(#paint0_linear_10128_36644)" fill-opacity="0.12"/>
<path d="M39.2339 19.2267L33.7748 4.0257C33.5622 4.27412 32.7756 4.81354 31.33 4.98389C29.8844 5.15423 27.9641 3.77729 27.1846 3.06752C25.8736 3.38691 23.0391 4.0257 22.1888 4.0257C21.1258 4.0257 18.8937 2.42873 18.3622 4.0257C17.8307 5.62268 16.5552 3.70631 14.6419 3.06752C13.1113 2.55649 11.1697 2.85459 10.3902 3.06752C8.72491 2.10934 5.22431 0.278147 4.54403 0.618835C3.86375 0.959522 2.91419 1.75446 2.52444 2.10935L0.876891 0.618835" stroke="#FF0000" stroke-width="0.30243" stroke-linecap="round"/>
<defs>
<linearGradient id="paint0_linear_10128_36644" x1="20.0777" y1="0.577148" x2="20.0777" y2="19.5771" gradientUnits="userSpaceOnUse">
<stop stop-color="#FF001F"/>
<stop offset="0.901042" stop-color="white"/>
</linearGradient>
</defs>
</svg>
