<svg width="11" height="11" viewBox="0 0 11 11" fill="none" xmlns="http://www.w3.org/2000/svg">
<path d="M5.84871 5.8756L8.46615 3.26232C8.54439 3.18408 8.58834 3.07798 8.58834 2.96734C8.58834 2.8567 8.54439 2.75059 8.46615 2.67236C8.38792 2.59412 8.28181 2.55017 8.17117 2.55017C8.06053 2.55017 7.95442 2.59412 7.87619 2.67236L5.26291 5.28979L2.64962 2.67236C2.57139 2.59412 2.46528 2.55017 2.35464 2.55017C2.244 2.55017 2.1379 2.59412 2.05966 2.67236C1.98143 2.75059 1.93748 2.8567 1.93748 2.96734C1.93748 3.07798 1.98143 3.18408 2.05966 3.26232L4.6771 5.8756L2.05966 8.48888C2.02072 8.52751 1.98981 8.57346 1.96872 8.62409C1.94763 8.67472 1.93677 8.72902 1.93677 8.78387C1.93677 8.83871 1.94763 8.89302 1.96872 8.94364C1.98981 8.99427 2.02072 9.04022 2.05966 9.07885C2.09828 9.11779 2.14424 9.1487 2.19486 9.16979C2.24549 9.19088 2.2998 9.20174 2.35464 9.20174C2.40949 9.20174 2.46379 9.19088 2.51442 9.16979C2.56505 9.1487 2.611 9.11779 2.64962 9.07885L5.26291 6.46141L7.87619 9.07885C7.91481 9.11779 7.96076 9.1487 8.01139 9.16979C8.06202 9.19088 8.11632 9.20174 8.17117 9.20174C8.22602 9.20174 8.28032 9.19088 8.33095 9.16979C8.38158 9.1487 8.42753 9.11779 8.46615 9.07885C8.50509 9.04022 8.536 8.99427 8.55709 8.94364C8.57819 8.89302 8.58905 8.83871 8.58905 8.78387C8.58905 8.72902 8.57819 8.67472 8.55709 8.62409C8.536 8.57346 8.50509 8.52751 8.46615 8.48888L5.84871 5.8756Z" fill="#F2F2F2"/>
</svg>
