<svg width="28" height="26" viewBox="0 0 28 26" fill="none" xmlns="http://www.w3.org/2000/svg">
<path d="M26.3169 0.577148L15.7812 8.40213L17.7296 3.7855L26.3169 0.577148Z" fill="#E2761B" stroke="#E2761B" stroke-width="0.162151" stroke-linecap="round" stroke-linejoin="round"/>
<path d="M1.98682 0.577148L12.4378 8.47625L10.5848 3.7855L1.98682 0.577148Z" fill="#E4761B" stroke="#E4761B" stroke-width="0.162151" stroke-linecap="round" stroke-linejoin="round"/>
<path d="M22.5213 18.7168L19.7153 23.0158L25.7191 24.6676L27.445 18.8121L22.5213 18.7168Z" fill="#E4761B" stroke="#E4761B" stroke-width="0.162151" stroke-linecap="round" stroke-linejoin="round"/>
<path d="M0.876953 18.8121L2.59231 24.6676L8.59605 23.0158L5.79007 18.7168L0.876953 18.8121Z" fill="#E4761B" stroke="#E4761B" stroke-width="0.162151" stroke-linecap="round" stroke-linejoin="round"/>
<path d="M8.25796 11.4476L6.58496 13.9783L12.5463 14.243L12.3346 7.83691L8.25796 11.4476Z" fill="#E4761B" stroke="#E4761B" stroke-width="0.162151" stroke-linecap="round" stroke-linejoin="round"/>
<path d="M20.0448 11.4534L15.9152 7.76855L15.7776 14.2488L21.7284 13.9841L20.0448 11.4534Z" fill="#E4761B" stroke="#E4761B" stroke-width="0.162151" stroke-linecap="round" stroke-linejoin="round"/>
<path d="M8.59717 23.0139L12.1761 21.2667L9.08424 18.8525L8.59717 23.0139Z" fill="#E4761B" stroke="#E4761B" stroke-width="0.162151" stroke-linecap="round" stroke-linejoin="round"/>
<path d="M16.125 21.2667L19.7145 23.0139L19.2169 18.8525L16.125 21.2667Z" fill="#E4761B" stroke="#E4761B" stroke-width="0.162151" stroke-linecap="round" stroke-linejoin="round"/>
<path d="M19.7199 23.0245L16.1304 21.2773L16.4163 23.6174L16.3845 24.6022L19.7199 23.0245Z" fill="#D7C1B3" stroke="#D7C1B3" stroke-width="0.162151" stroke-linecap="round" stroke-linejoin="round"/>
<path d="M8.60254 23.0245L11.938 24.6022L11.9168 23.6174L12.1815 21.2773L8.60254 23.0245Z" fill="#D7C1B3" stroke="#D7C1B3" stroke-width="0.162151" stroke-linecap="round" stroke-linejoin="round"/>
<path d="M11.987 17.3131L9.00098 16.4343L11.1081 15.4707L11.987 17.3131Z" fill="#233447" stroke="#233447" stroke-width="0.162151" stroke-linecap="round" stroke-linejoin="round"/>
<path d="M16.3174 17.3131L17.1962 15.4707L19.314 16.4343L16.3174 17.3131Z" fill="#233447" stroke="#233447" stroke-width="0.162151" stroke-linecap="round" stroke-linejoin="round"/>
<path d="M8.59944 23.0158L9.10769 18.7168L5.79346 18.8121L8.59944 23.0158Z" fill="#CD6116" stroke="#CD6116" stroke-width="0.162151" stroke-linecap="round" stroke-linejoin="round"/>
<path d="M19.2107 18.7168L19.7189 23.0158L22.5249 18.8121L19.2107 18.7168Z" fill="#CD6116" stroke="#CD6116" stroke-width="0.162151" stroke-linecap="round" stroke-linejoin="round"/>
<path d="M21.7296 13.9824L15.7788 14.2471L16.3294 17.3072L17.2083 15.4648L19.326 16.4284L21.7296 13.9824Z" fill="#CD6116" stroke="#CD6116" stroke-width="0.162151" stroke-linecap="round" stroke-linejoin="round"/>
<path d="M9.00429 16.4284L11.122 15.4648L11.9903 17.3072L12.5515 14.2471L6.59009 13.9824L9.00429 16.4284Z" fill="#CD6116" stroke="#CD6116" stroke-width="0.162151" stroke-linecap="round" stroke-linejoin="round"/>
<path d="M6.58984 13.9824L9.08876 18.8532L9.00405 16.4284L6.58984 13.9824Z" fill="#E4751F" stroke="#E4751F" stroke-width="0.162151" stroke-linecap="round" stroke-linejoin="round"/>
<path d="M19.3276 16.4284L19.2217 18.8532L21.7312 13.9824L19.3276 16.4284Z" fill="#E4751F" stroke="#E4751F" stroke-width="0.162151" stroke-linecap="round" stroke-linejoin="round"/>
<path d="M12.5497 14.2471L11.9885 17.3072L12.6874 20.9179L12.8462 16.1636L12.5497 14.2471Z" fill="#E4751F" stroke="#E4751F" stroke-width="0.162151" stroke-linecap="round" stroke-linejoin="round"/>
<path d="M15.7776 14.2471L15.4917 16.153L15.6188 20.9179L16.3282 17.3072L15.7776 14.2471Z" fill="#E4751F" stroke="#E4751F" stroke-width="0.162151" stroke-linecap="round" stroke-linejoin="round"/>
<path d="M16.3283 17.3085L15.6189 20.9193L16.1271 21.2687L19.219 18.8545L19.3249 16.4297L16.3283 17.3085Z" fill="#F6851B" stroke="#F6851B" stroke-width="0.162151" stroke-linecap="round" stroke-linejoin="round"/>
<path d="M9.00098 16.4297L9.08569 18.8545L12.1776 21.2687L12.6858 20.9193L11.987 17.3085L9.00098 16.4297Z" fill="#F6851B" stroke="#F6851B" stroke-width="0.162151" stroke-linecap="round" stroke-linejoin="round"/>
<path d="M16.3796 24.5982L16.4113 23.6135L16.1466 23.3805H12.1547L11.9112 23.6135L11.9323 24.5982L8.59692 23.0205L9.76167 23.9735L12.1229 25.6147H16.1784L18.5502 23.9735L19.715 23.0205L16.3796 24.5982Z" fill="#C0AD9E" stroke="#C0AD9E" stroke-width="0.162151" stroke-linecap="round" stroke-linejoin="round"/>
<path d="M16.1298 21.2713L15.6215 20.9219H12.6885L12.1802 21.2713L11.9155 23.6114L12.1591 23.3784H16.151L16.4157 23.6114L16.1298 21.2713Z" fill="#161616" stroke="#161616" stroke-width="0.162151" stroke-linecap="round" stroke-linejoin="round"/>
<path d="M26.7596 8.91038L27.6597 4.59023L26.3149 0.577148L16.1287 8.13742L20.0464 11.4517L25.5843 13.0717L26.8126 11.6422L26.2831 11.2611L27.1302 10.4881L26.4737 9.97983L27.3208 9.33393L26.7596 8.91038Z" fill="#763D16" stroke="#763D16" stroke-width="0.162151" stroke-linecap="round" stroke-linejoin="round"/>
<path d="M0.657715 4.59023L1.55775 8.91038L0.985962 9.33393L1.83305 9.97983L1.18715 10.4881L2.03423 11.2611L1.5048 11.6422L2.72249 13.0717L8.26034 11.4517L12.1781 8.13742L1.99188 0.577148L0.657715 4.59023Z" fill="#763D16" stroke="#763D16" stroke-width="0.162151" stroke-linecap="round" stroke-linejoin="round"/>
<path d="M25.5806 13.0771L20.0427 11.457L21.7263 13.9877L19.2168 18.8585L22.5204 18.8161H27.4441L25.5806 13.0771Z" fill="#F6851B" stroke="#F6851B" stroke-width="0.162151" stroke-linecap="round" stroke-linejoin="round"/>
<path d="M8.26063 11.457L2.72279 13.0771L0.880371 18.8161H5.79349L9.08654 18.8585L6.58763 13.9877L8.26063 11.457Z" fill="#F6851B" stroke="#F6851B" stroke-width="0.162151" stroke-linecap="round" stroke-linejoin="round"/>
<path d="M15.7788 14.2555L16.1282 8.14586L17.7376 3.79395H10.5903L12.1786 8.14586L12.5492 14.2555L12.6763 16.1826L12.6869 20.9263H15.6199L15.6411 16.1826L15.7788 14.2555Z" fill="#F6851B" stroke="#F6851B" stroke-width="0.162151" stroke-linecap="round" stroke-linejoin="round"/>
</svg>
