<svg width="23" height="23" viewBox="0 0 23 23" fill="none" xmlns="http://www.w3.org/2000/svg">
<g clip-path="url(#clip0_9851_71532)">
<path d="M3.39102 15.8987L9.30325 10.7126L12.7544 14.6537L21.1941 6.34045L19.9776 4.95122L12.9381 11.8816L9.48696 7.94053L2.09682 14.4208L3.39102 15.8987Z" fill="#52FF00"/>
<path fill-rule="evenodd" clip-rule="evenodd" d="M14.7434 11.281C14.626 11.1636 14.56 11.0042 14.56 10.8381C14.56 10.672 14.626 10.5127 14.7434 10.3952L19.8748 5.26386L16.0721 5.26475C15.9897 5.26475 15.9082 5.24853 15.8321 5.21701C15.756 5.18549 15.6869 5.1393 15.6286 5.08106C15.5704 5.02283 15.5242 4.95369 15.4927 4.8776C15.4612 4.80152 15.445 4.71997 15.445 4.63761C15.445 4.55525 15.4612 4.4737 15.4927 4.39761C15.5242 4.32153 15.5704 4.25239 15.6286 4.19416C15.6869 4.13592 15.756 4.08973 15.8321 4.05821C15.9082 4.02669 15.9897 4.01047 16.0721 4.01047H21.3868C21.4692 4.01037 21.5508 4.02652 21.6269 4.058C21.7031 4.08948 21.7723 4.13567 21.8305 4.19392C21.8888 4.25218 21.935 4.32136 21.9664 4.39749C21.9979 4.47363 22.0141 4.55522 22.014 4.63761L22.014 9.95234C22.014 10.0347 21.9977 10.1162 21.9662 10.1923C21.9347 10.2684 21.8885 10.3376 21.8303 10.3958C21.772 10.454 21.7029 10.5002 21.6268 10.5317C21.5507 10.5633 21.4692 10.5795 21.3868 10.5795C21.2205 10.5795 21.061 10.5134 20.9434 10.3958C20.8851 10.3376 20.8389 10.2684 20.8074 10.1923C20.7759 10.1162 20.7597 10.0347 20.7597 9.95234L20.7606 6.14965L15.6292 11.281C15.5117 11.3985 15.3524 11.4645 15.1863 11.4645C15.0202 11.4645 14.8609 11.3985 14.7434 11.281Z" fill="#52FF00"/>
</g>
<defs>
<clipPath id="clip0_9851_71532">
<rect width="22.2255" height="22.2255" fill="white" transform="translate(0.529785 0.00930786)"/>
</clipPath>
</defs>
</svg>
