<svg width="22" height="16" viewBox="0 0 22 16" fill="none" xmlns="http://www.w3.org/2000/svg">
<path d="M11.0156 6.4043C10.0671 6.4043 9.26562 7.2058 9.26562 8.1543C9.26562 9.1028 10.0671 9.9043 11.0156 9.9043C11.9641 9.9043 12.7656 9.1028 12.7656 8.1543C12.7656 7.2058 11.9641 6.4043 11.0156 6.4043Z" fill="#805AD5"/>
<path d="M11.016 2.0293C4.33713 2.0293 2.32988 7.81917 2.3115 7.8778L2.21875 8.1543L2.31063 8.4308C2.32988 8.48942 4.33713 14.2793 11.016 14.2793C17.6949 14.2793 19.7021 8.48942 19.7205 8.4308L19.8133 8.1543L19.7214 7.8778C19.7021 7.81917 17.6949 2.0293 11.016 2.0293ZM11.016 11.6543C9.08575 11.6543 7.516 10.0845 7.516 8.1543C7.516 6.22405 9.08575 4.6543 11.016 4.6543C12.9462 4.6543 14.516 6.22405 14.516 8.1543C14.516 10.0845 12.9462 11.6543 11.016 11.6543Z" fill="#805AD5"/>
<path d="M0.820312 1.5918L21.2148 14.7148" stroke="#805AD5" stroke-width="2"/>
</svg>
