<svg width="21" height="22" viewBox="0 0 21 22" fill="none" xmlns="http://www.w3.org/2000/svg">
<path d="M19.0975 7.58388L18.9261 7.64836L18.9891 7.82031C19.3457 8.79436 19.5267 9.82078 19.5267 10.8709C19.5267 15.7082 15.6443 19.6395 10.8776 19.6395C8.41866 19.6395 6.09848 18.5771 4.46896 16.7532H6.86229H7.04703V16.5685V15.7546V15.5698H6.86229H2.84692H2.66218V15.7546V19.8243V20.009H2.84692H3.65H3.83474V19.8243V17.807C5.66898 19.7183 8.20125 20.8229 10.8776 20.8229C16.2959 20.8229 20.6993 16.356 20.6993 10.8709C20.6993 9.68067 20.494 8.51638 20.0889 7.41003L20.0248 7.23499L19.8504 7.30063L19.0975 7.58388Z" fill="#805AD5" stroke="#805AD5" stroke-width="0.369491"/>
<path d="M14.9575 5.77337V5.95812H15.1422H19.4085H19.5933V5.77337V1.70368V1.51893H19.4085H18.5553H18.3705V1.70368V3.74001C16.4211 1.81547 13.725 0.704995 10.8759 0.704995C5.13655 0.704995 0.451973 5.16143 0.451973 10.657C0.451973 11.8487 0.670381 13.0142 1.10108 14.1214L1.16603 14.2883L1.33492 14.2285L2.13485 13.9453L2.31444 13.8817L2.24536 13.7042C1.86675 12.731 1.67473 11.7057 1.67473 10.657C1.67473 5.83021 5.79414 1.88842 10.8759 1.88842C13.4952 1.88842 15.9616 2.95199 17.6937 4.77469H15.1422H14.9575V4.95943V5.77337Z" fill="#805AD5" stroke="#805AD5" stroke-width="0.369491"/>
</svg>
