<svg width="22" height="22" viewBox="0 0 22 22" fill="none" xmlns="http://www.w3.org/2000/svg">
<mask id="mask0_9851_71540" style="mask-type:alpha" maskUnits="userSpaceOnUse" x="1" y="1" width="20" height="20">
<path d="M11.1947 8.73046V2.065M5.86228 10.0636L11.1947 8.73046L16.527 7.39737M12.9721 13.6185L16.527 7.39737M20.0819 13.6185L16.527 7.39737M9.4172 16.2846L5.86228 10.0636M2.30737 16.2846L5.86228 10.0636" stroke="white" stroke-width="1.77746" stroke-linecap="round" stroke-linejoin="round"/>
<path fill-rule="evenodd" clip-rule="evenodd" d="M5.86253 19.8395C6.80535 19.8395 7.70956 19.465 8.37623 18.7983C9.04291 18.1316 9.41744 17.2274 9.41744 16.2846H2.30762C2.30762 17.2274 2.68215 18.1316 3.34883 18.7983C4.0155 19.465 4.91971 19.8395 5.86253 19.8395ZM16.5273 17.1734C17.4701 17.1734 18.3743 16.7988 19.041 16.1321C19.7076 15.4655 20.0822 14.5613 20.0822 13.6184H12.9724C12.9724 14.5613 13.3469 15.4655 14.0136 16.1321C14.6802 16.7988 15.5844 17.1734 16.5273 17.1734Z" fill="white" stroke="white" stroke-width="1.77746" stroke-linecap="round" stroke-linejoin="round"/>
</mask>
<g mask="url(#mask0_9851_71540)">
<path d="M0.530029 0.287537H21.8595V21.617H0.530029V0.287537Z" fill="white"/>
</g>
</svg>
