<svg width="20" height="20" viewBox="0 0 20 20" fill="none" xmlns="http://www.w3.org/2000/svg">
<path d="M19.4463 18.387L13.2662 12.2069C14.2252 10.9671 14.744 9.45125 14.744 7.85686C14.744 5.94834 13.9991 4.15881 12.6522 2.80952C11.3053 1.46024 9.51104 0.717773 7.6049 0.717773C5.69877 0.717773 3.90448 1.46262 2.55757 2.80952C1.20828 4.15643 0.46582 5.94834 0.46582 7.85686C0.46582 9.76299 1.21066 11.5573 2.55757 12.9042C3.90448 14.2535 5.69639 14.9959 7.6049 14.9959C9.1993 14.9959 10.7128 14.4772 11.9526 13.5205L18.1327 19.6982C18.1508 19.7163 18.1723 19.7307 18.196 19.7405C18.2197 19.7504 18.2451 19.7554 18.2707 19.7554C18.2963 19.7554 18.3217 19.7504 18.3454 19.7405C18.3691 19.7307 18.3906 19.7163 18.4087 19.6982L19.4463 18.663C19.4644 18.6449 19.4788 18.6234 19.4886 18.5997C19.4984 18.576 19.5035 18.5507 19.5035 18.525C19.5035 18.4994 19.4984 18.474 19.4886 18.4503C19.4788 18.4266 19.4644 18.4051 19.4463 18.387ZM11.3743 11.6263C10.3653 12.6329 9.02796 13.1874 7.6049 13.1874C6.18185 13.1874 4.84446 12.6329 3.83547 11.6263C2.82886 10.6173 2.27439 9.27991 2.27439 7.85686C2.27439 6.4338 2.82886 5.09403 3.83547 4.08742C4.84446 3.08081 6.18185 2.52634 7.6049 2.52634C9.02796 2.52634 10.3677 3.07843 11.3743 4.08742C12.3809 5.09641 12.9354 6.4338 12.9354 7.85686C12.9354 9.27991 12.3809 10.6197 11.3743 11.6263Z" fill="#805AD5"/>
</svg>
