<svg width="29" height="29" viewBox="0 0 29 29" fill="none" xmlns="http://www.w3.org/2000/svg">
<g clip-path="url(#clip0_9851_71491)">
<path d="M28.7139 14.8553C28.7139 7.07677 22.4062 0.78421 14.6428 0.78421C6.86433 0.78421 0.571777 7.07677 0.571777 14.8553C0.571777 22.6186 6.86433 28.9263 14.6428 28.9263C22.4062 28.9263 28.7139 22.6186 28.7139 14.8553Z" fill="url(#paint0_radial_9851_71491)"/>
<path d="M24.2111 10.4583C24.1505 10.807 24.0898 10.9738 23.9988 11.1558C23.9079 11.3681 23.8169 11.5955 23.7259 12.0807C23.6956 12.2627 23.6652 12.4143 23.6501 12.5356V12.5508C23.6198 12.7479 23.6046 12.8843 23.5288 13.1118C23.4681 13.3089 23.362 13.6273 23.1042 13.9609C22.8919 14.2338 22.5432 14.7039 22.0732 14.7645C22.0277 14.7645 21.9519 14.7645 21.9064 14.7494C20.572 14.067 19.4348 13.5667 19.0406 13.4605C18.5857 13.3241 18.6464 12.3233 18.6919 11.4439C18.7222 11.0496 18.7373 10.6706 18.7222 10.3522C18.6615 9.23011 18.4644 8.01708 17.494 7.42574C16.9178 7.07699 16.1597 6.97085 15.447 6.97085C15.5835 6.9102 15.72 6.81922 15.8867 6.72825C16.3113 6.48564 16.8268 6.18239 17.3575 6.12174C17.5243 6.10657 17.6911 6.09141 17.8579 6.06108C18.9041 5.93978 19.8139 5.83364 20.7692 6.16722C21.2089 6.31885 22.0883 6.80406 22.3158 7.27411C22.4826 7.59253 22.7555 7.85029 23.2862 8.35067C23.5743 8.60843 23.7562 8.76006 23.8927 8.88136C24.0898 9.03299 24.1201 9.07848 24.1808 9.18462C24.3627 9.54853 24.3021 9.92759 24.2111 10.4583Z" fill="white"/>
<path d="M19.374 15.0524C19.4346 15.0675 19.4649 15.1433 19.4195 15.204C19.283 15.4163 19.1162 15.7195 18.9191 16.0683C18.8281 16.2351 18.7371 16.4018 18.6613 16.5231C18.4035 16.9629 18.3884 17.3419 18.3732 17.63C18.3581 17.9485 18.3429 18.0849 18.1458 18.2062C17.9942 18.3124 17.8274 18.3427 16.7356 18.5095C16.5385 18.5398 16.4627 18.5701 16.3869 18.6156C16.3717 18.6308 16.3414 18.6308 16.3262 18.6459C16.2656 18.6763 16.2049 18.6156 16.2049 18.555C16.2201 18.4033 16.2201 18.2062 16.2201 17.9484V17.903C16.2201 17.6907 16.2201 17.5087 16.2049 17.3723C16.1898 17.0993 16.1898 16.978 16.2656 16.8567C16.3566 16.7051 16.4324 16.6596 16.5385 16.5838C16.7053 16.4777 16.9328 16.3412 17.2512 15.8863C17.4331 15.6437 17.4635 15.5072 17.4938 15.4011C17.5089 15.3556 17.5089 15.3405 17.6454 15.2343C17.7819 15.1282 18.2216 14.7946 18.7826 14.8856C18.9646 14.9159 19.1617 14.9765 19.374 15.0524Z" fill="white"/>
<path d="M15.0219 20.0866C14.9916 20.1169 14.9764 20.1321 14.9309 20.1321C14.8096 20.1321 14.7338 20.1018 14.6883 20.0411C14.5822 19.9047 14.5974 19.6317 14.6125 19.4649L15.0826 19.3436C15.1129 19.6014 15.1281 19.9502 15.0219 20.0866Z" fill="white"/>
<path d="M15.052 18.4189C15.0369 18.4795 15.0369 18.5553 15.0369 18.6463C15.0369 18.6766 15.0369 18.707 15.0369 18.7373C15.0369 18.8131 15.0369 18.9344 15.0369 18.9951C14.8852 19.0406 14.7639 19.0406 14.6123 19.0406C14.6123 18.9951 14.6123 18.9193 14.6123 18.8738C14.6123 18.8434 14.6123 18.798 14.6123 18.7676C14.6123 18.7221 14.6123 18.6918 14.6123 18.6463C14.6123 18.5553 14.6123 18.4189 14.6275 18.3734C14.673 18.3734 14.7184 18.3582 14.7639 18.3431C14.8549 18.3279 14.9914 18.2976 15.0672 18.3127C15.0672 18.3431 15.0672 18.3886 15.052 18.4189Z" fill="white"/>
<path d="M14.2025 19.95C14.1874 20.1926 14.1116 20.4807 13.8841 20.5262C13.778 20.5413 13.7325 20.511 13.7022 20.4807C13.5505 20.3442 13.5354 19.9197 13.5505 19.6164C13.6567 19.6164 13.778 19.6012 13.9296 19.5709C14.0206 19.5558 14.1116 19.5254 14.1874 19.5103C14.2025 19.6316 14.2177 19.7832 14.2025 19.95Z" fill="white"/>
<path d="M14.0966 19.1004L13.5962 19.2823C13.6265 19.0852 13.6568 18.8123 13.672 18.6303C13.6872 18.509 13.7175 18.4635 13.7327 18.4484C13.7327 18.4484 13.7478 18.4332 13.763 18.4332C13.763 18.4332 13.763 18.4332 13.7781 18.4332H13.7933L14.1117 18.418C14.0966 18.5697 14.0966 18.9032 14.0966 19.1004Z" fill="white"/>
<path d="M13.2785 18.9491C13.2482 19.0249 13.2179 19.2371 13.2027 19.3888L12.5811 19.3736C12.6114 19.1765 12.672 18.9794 12.7175 18.8278C12.7782 18.6761 12.8237 18.5548 12.8843 18.5245C12.945 18.4942 13.0814 18.479 13.1724 18.5548C13.3089 18.6458 13.3392 18.7823 13.2785 18.9491Z" fill="white"/>
<path d="M13.0507 20.8749C13.0052 20.9356 12.9446 20.9811 12.8839 20.9811C12.8081 20.9962 12.7626 20.9659 12.7171 20.9356C12.52 20.7536 12.5352 20.1623 12.5503 19.8742C12.8081 19.8135 13.0962 19.768 13.2327 19.7529C13.2327 19.9803 13.2478 20.602 13.0507 20.8749Z" fill="white"/>
<path d="M12.2315 19.3434C12.2012 19.4192 12.1709 19.495 12.1557 19.5709C12.0799 19.6012 11.8524 19.5709 11.625 19.5254L11.7766 18.5398C12.0344 18.464 12.3377 18.4488 12.3983 18.5246C12.5044 18.6308 12.3073 19.1311 12.2315 19.3434Z" fill="white"/>
<path d="M11.9432 21.0111C11.8219 21.1627 11.64 21.2386 11.3822 21.2234C11.2002 21.2234 11.1396 21.1476 11.1093 21.1021C10.9728 20.8747 11.1093 20.344 11.2457 20.0104L12.0948 20.0559C12.11 20.1165 12.11 20.1923 12.11 20.2681C12.1252 20.5259 12.0948 20.8292 11.9432 21.0111Z" fill="white"/>
<path d="M18.9787 13.8393C18.2054 13.627 18.2812 12.505 18.3419 11.4133C18.357 11.0342 18.3873 10.6703 18.3722 10.367C18.3115 9.35112 18.1447 8.24424 17.3259 7.74387C16.4465 7.21317 15.006 7.33447 14.1266 7.44061C13.8082 7.53159 13.5049 7.6074 13.2623 7.59224C12.7468 7.56191 12.3374 7.34963 11.9735 7.15252C11.7006 7.00089 11.4579 6.86443 11.2153 6.86443C11.2002 6.86443 11.185 6.86443 11.185 6.86443C10.5027 6.90991 10.1843 7.0767 9.89618 7.33447C9.82037 7.39512 9.72939 7.57708 9.4413 8.41103C9.28967 8.83559 9.27451 9.06303 9.24418 9.27531C9.21386 9.47242 9.1987 9.6847 9.09256 10.0031C9.01674 10.2154 8.95609 10.3974 8.9106 10.5793C8.77414 11.0494 8.65283 11.4284 8.31925 11.8833C8.27377 11.9288 8.22828 12.0198 8.16763 12.0956C8.09181 12.2169 8.00084 12.3685 7.86437 12.5353C7.77339 12.6566 7.57628 13.1115 7.59144 13.248C7.6066 13.4754 7.68242 13.6119 7.75823 13.7635C7.83404 13.9151 7.94018 14.0971 7.95535 14.3548V14.4003C7.98567 14.7946 7.92502 14.9917 7.18204 15.6588C6.712 16.0834 6.36325 16.4928 6.13581 16.796C6.12065 16.8264 6.13581 16.8567 6.1813 16.8567C6.19646 16.8567 6.19646 16.8567 6.19646 16.8567C6.21163 16.8567 6.22679 16.8567 6.24195 16.8567C6.25712 16.8567 6.27228 16.8567 6.28744 16.8567C6.3026 16.8567 6.31777 16.8567 6.33293 16.8567C6.51488 16.8719 6.69684 16.9477 6.81814 17.0841C6.8333 17.1145 6.87879 17.1145 6.90911 17.0993C7.03042 17.0538 7.16688 17.0538 7.28818 17.069C7.43981 17.0841 7.6066 17.1296 7.71274 17.2358C7.74307 17.2661 7.78856 17.2813 7.83404 17.2661C7.95535 17.2358 8.09181 17.2358 8.21311 17.2813C8.30409 17.3116 8.39507 17.3722 8.45572 17.448C8.50121 17.4935 8.57702 17.5087 8.63767 17.4784C8.668 17.4632 8.71349 17.4329 8.75897 17.4177C8.92577 17.3571 9.10772 17.3874 9.25935 17.448C9.33516 17.4784 9.41097 17.4935 9.48679 17.5542C9.60809 17.6452 9.69907 17.7665 9.74456 17.9029C9.77488 17.9787 9.88102 18.0091 9.94167 17.9484C10.063 17.8574 10.154 17.8423 10.2449 17.8726C10.2904 17.8878 10.3207 17.9181 10.3511 17.9636C10.3966 18.0242 10.4724 18.0849 10.533 18.0546C10.7908 17.9787 11.094 18.0242 11.3215 18.1455C11.3973 18.191 11.4883 18.2517 11.5338 18.3427V18.2972C11.5338 18.282 11.5489 18.2668 11.5641 18.2517L11.6096 18.2365C11.7309 18.191 12.3677 18.0091 12.6103 18.2668C12.6255 18.282 12.6406 18.282 12.6558 18.2668C12.6861 18.2365 12.7165 18.2062 12.7316 18.2062C12.8984 18.1152 13.1713 18.1 13.3533 18.2668C13.3836 18.2972 13.4443 18.282 13.4746 18.2517C13.4898 18.2214 13.5049 18.2062 13.5353 18.191C13.5959 18.1304 13.6869 18.1152 13.7779 18.1152L14.1266 18.1C14.2176 18.1 14.4905 18.0697 14.5663 18.0546H14.5815C14.6118 18.0546 14.6573 18.0394 14.7028 18.0242C14.8696 17.9939 15.0667 17.9484 15.2183 18.0242C15.3699 18.1 15.3548 18.2668 15.3396 18.4185C15.3396 18.4791 15.3245 18.5398 15.3245 18.6004C15.3245 18.6307 15.3245 18.6611 15.3245 18.6914C15.3245 18.8279 15.3245 18.9492 15.3093 19.0401L15.3245 19.116C15.3245 19.116 15.3245 19.116 15.3245 19.1311C15.3396 19.1918 15.4154 19.2373 15.4609 19.1918C15.5822 19.116 15.7035 19.025 15.749 18.9643V18.9492C15.749 18.934 15.7642 18.9037 15.7793 18.843C15.7945 18.7066 15.8248 18.4488 15.8248 17.9181C15.8248 17.8878 15.8248 17.8726 15.8248 17.8574C15.8248 17.6603 15.8248 17.4935 15.8097 17.3571C15.7945 17.069 15.7793 16.8415 15.931 16.6141C16.0674 16.3867 16.2039 16.3108 16.3404 16.2199C16.492 16.1289 16.6588 16.0227 16.9469 15.6285C17.0833 15.4314 17.0985 15.3556 17.1137 15.2949C17.144 15.1433 17.1895 15.0523 17.4169 14.9007C17.5989 14.7642 18.1296 14.3548 18.8574 14.4761C19.1 14.5216 19.4791 14.6429 19.8733 14.7946C19.8885 14.7946 19.9036 14.8097 19.9188 14.8097H19.9339C20.2827 14.9462 20.6011 15.0978 20.8286 15.2191C20.874 15.2494 20.9347 15.2343 20.9802 15.1888C21.056 15.0978 21.1318 15.0523 21.2076 14.9917C21.2379 14.9765 21.2683 14.9614 21.2834 14.9462C21.2986 14.9462 21.2986 14.931 21.2986 14.931C21.3592 14.8855 21.3592 14.7642 21.2834 14.7339C20.2675 14.2335 19.2971 13.9303 18.9787 13.8393ZM11.6702 14.0667C11.4276 15.0978 9.82037 16.2502 9.09256 16.2502H9.07739C9.06223 16.2502 9.04707 16.2502 9.04707 16.2502C9.0319 16.2502 9.01674 16.2502 9.00158 16.235C8.98642 16.235 8.98642 16.235 8.97125 16.235C8.83479 16.1895 8.65284 16.0986 8.51637 15.9621C8.42539 15.8711 8.34958 15.7498 8.31925 15.6437C8.31925 15.6285 8.30409 15.5982 8.30409 15.583C8.2586 15.4011 8.21311 15.1888 8.36474 14.8249C8.37991 14.7794 8.41023 14.7339 8.42539 14.6884C8.42539 14.6733 8.44056 14.6581 8.44056 14.6429C8.45572 14.5974 8.47088 14.5671 8.48604 14.5368C8.50121 14.4761 8.53153 14.4307 8.5467 14.4003C8.5467 14.3852 8.56186 14.37 8.56186 14.3548C8.60735 14.2335 8.60735 14.1881 8.62251 14.1426C8.62251 14.1122 8.63767 14.0516 8.65283 13.9909C8.69832 13.7938 8.72865 13.627 8.74381 13.4906C8.77414 13.2328 8.81963 13.0054 8.95609 12.7931C8.98642 12.7627 9.00158 12.7324 9.0319 12.7021C9.04707 12.6869 9.04707 12.6869 9.06223 12.6718C9.07739 12.6566 9.07739 12.6566 9.09256 12.6414C9.12288 12.6111 9.16837 12.596 9.1987 12.5808C9.21386 12.5808 9.22902 12.5656 9.24418 12.5656C9.27451 12.5505 9.30483 12.5505 9.33516 12.5353C9.47163 12.505 9.62325 12.505 9.80521 12.5201C10.0023 12.5353 10.1843 12.5656 10.3359 12.6111C10.4724 12.6414 10.5937 12.6869 10.6846 12.7324C10.6998 12.7324 10.6998 12.7476 10.715 12.7476C10.7301 12.7627 10.7453 12.7627 10.7756 12.7779C10.806 12.7931 10.8211 12.7931 10.8514 12.8082C10.8818 12.8234 10.9121 12.8386 10.9424 12.8537L10.9727 12.8689C11.0789 12.9144 11.185 12.975 11.2608 13.0357C11.3063 13.066 11.3366 13.0963 11.367 13.1267C11.3821 13.1418 11.3973 13.1418 11.3973 13.157C11.4125 13.1721 11.4125 13.1721 11.4276 13.1873C11.746 13.4602 11.7309 13.8393 11.6702 14.0667ZM12.4284 10.1396L12.398 10.3215C12.3222 10.7461 12.1554 11.3223 11.5489 11.4739C10.9576 11.6104 10.8211 11.6407 10.4117 11.671C10.3966 11.671 10.3966 11.671 10.3814 11.671C10.0781 11.671 9.48679 11.4739 9.38065 11.0039C9.32 10.7006 9.45646 10.4732 9.66874 10.1093C9.69907 10.0486 9.74456 9.98796 9.79004 9.91215C10.0933 9.41177 10.1994 9.04787 10.2904 8.75977C10.3814 8.47168 10.4572 8.24424 10.6543 8.04712C10.6998 8.00163 10.7453 7.95615 10.806 7.92582C10.8363 7.89549 10.8818 7.88033 10.9273 7.85001C10.9879 7.81968 11.0486 7.80452 11.1092 7.77419C11.2457 7.7287 11.3973 7.71354 11.5338 7.71354C11.8219 7.71354 12.1099 7.78936 12.3071 7.95615C12.398 8.03196 12.5345 8.16843 12.6103 8.60815C12.6406 8.83559 12.58 9.24498 12.4284 10.1396ZM16.7801 11.3526C16.5678 11.7165 16.4617 11.9136 16.2797 12.0653C15.9158 12.3685 15.5064 12.4292 15.1577 12.4292C14.9151 12.4292 14.7028 12.3837 14.5663 12.3685C14.2024 12.3079 13.5504 12.1866 13.323 11.6559C13.2775 11.5497 13.2775 11.4891 13.2775 11.3981C13.2775 11.3223 13.2775 11.1707 13.232 10.8522V10.8371C13.2168 10.6854 13.2017 10.5187 13.232 10.3064V10.2761C13.3533 9.63922 13.3988 9.54824 13.4139 9.48759C13.4746 9.36629 13.6262 9.30563 13.7627 9.38145C13.884 9.4421 13.9295 9.59373 13.884 9.71503C13.8688 9.74536 13.8385 9.88182 13.7324 10.3822V10.4125C13.702 10.549 13.7172 10.6551 13.7324 10.7916V10.8067C13.7779 11.1707 13.7779 11.3223 13.7779 11.4133C13.7779 11.4284 13.7779 11.4436 13.7779 11.4587V11.4739C13.8233 11.5801 13.9143 11.6407 14.0205 11.7014C14.0963 11.7317 14.1721 11.671 14.1569 11.5952C14.0508 11.0342 14.0508 10.3822 14.2631 9.9728C14.3389 9.83633 14.4602 9.62405 14.5815 9.41177C14.5966 9.39661 14.6118 9.36629 14.6118 9.35112C14.627 9.33596 14.627 9.3208 14.6421 9.30563C14.7028 9.21466 14.7483 9.13884 14.7938 9.06303C14.7938 9.04787 14.8089 9.04787 14.8089 9.0327L14.8241 9.01754C14.8393 9.00238 14.8393 8.98722 14.8544 8.97205C14.8544 8.97205 14.8544 8.95689 14.8696 8.95689L14.8847 8.94173C14.8847 8.92656 14.8999 8.92656 14.8999 8.9114C14.9454 8.85075 14.9909 8.7901 15.0212 8.72945C15.0819 8.65363 15.006 8.56266 14.9302 8.59298C14.7179 8.68396 14.5815 8.7901 14.5512 8.80526C14.445 8.89624 14.2782 8.88108 14.1873 8.75977C14.0963 8.65363 14.1114 8.48684 14.2327 8.39587C14.3692 8.28973 15.0667 7.78936 15.9006 8.0168C16.5072 8.18359 16.8104 8.65363 16.9317 8.82043C17.0227 8.95689 17.3259 9.38145 17.3108 9.98796C17.3108 10.4277 17.1288 10.7613 16.7801 11.3526Z" fill="white"/>
<path d="M11.3527 8.24425C11.3072 8.35039 11.2617 8.47169 11.2011 8.60815C11.0798 8.92657 10.9282 9.29048 10.8523 9.42694C10.731 9.65439 10.6401 9.80601 10.5642 9.91215C10.4733 10.0486 10.4126 10.1548 10.352 10.3064C10.261 10.5642 10.2458 10.8522 10.3065 11.1707C10.1397 11.1555 9.88192 11.0494 9.8516 10.8977C9.83643 10.7916 9.89708 10.6855 10.079 10.367C10.1094 10.3064 10.1549 10.2306 10.2003 10.1699C10.5188 9.62406 10.6552 9.21467 10.7462 8.91141C10.8523 8.59299 10.8978 8.45653 11.0646 8.33522C11.1708 8.28974 11.2617 8.25941 11.3527 8.24425Z" fill="white"/>
<path d="M11.0332 19.7076C10.8512 20.0715 10.639 20.4051 10.5025 20.5719C10.3812 20.2686 10.1841 19.556 10.2447 18.995C10.2447 18.9798 10.2447 18.9646 10.2447 18.9495C10.2599 18.7675 10.3054 18.6159 10.3963 18.4794C10.457 18.3885 10.6086 18.343 10.7754 18.343C10.8967 18.343 11.0332 18.3733 11.1545 18.4339C11.2151 18.4643 11.3061 18.5401 11.3061 18.7372C11.3364 19.0101 11.2 19.374 11.0332 19.7076Z" fill="white"/>
<path d="M20.7378 15.6589C20.7529 15.6741 20.7529 15.6892 20.7529 15.7044C20.7075 15.8105 20.6316 15.8863 20.5558 15.9773C20.4649 16.0835 20.3587 16.2048 20.2677 16.4019C20.1313 16.6748 20.0858 16.9174 20.0706 17.5543C20.0403 18.2972 20.0706 18.7066 20.1009 19.0099C20.1161 19.298 20.1313 19.4799 20.0858 19.768C19.9796 20.3442 19.737 20.7233 19.4186 21.2085C19.0244 21.815 18.6302 22.4367 17.963 22.6338C17.9023 22.649 17.9023 22.649 17.7204 22.649C17.5688 22.649 17.311 22.649 16.8409 22.6641C15.9615 22.6944 15.5218 22.7096 15.1579 22.7854C14.7636 22.8612 14.5665 22.9522 14.3542 23.028C14.1723 23.1038 14.0055 23.1645 13.6871 23.2403C13.49 23.2858 13.2019 23.3161 12.2163 23.3313C11.1852 23.3313 10.5636 23.3313 9.75992 23.2403C8.63788 23.119 8.07686 23.0432 7.69779 22.8461C6.81834 22.376 6.43928 21.5269 5.83276 20.1319C5.83276 20.1168 5.84793 20.1016 5.86309 20.1016C5.89341 20.1168 5.92374 20.1319 5.95407 20.1471C5.98439 20.1623 6.01472 20.1623 6.02988 20.1623C6.09053 20.1774 6.15118 20.1774 6.21183 20.1623C6.227 20.1623 6.227 20.1623 6.24216 20.1471C6.25732 20.1471 6.27248 20.1471 6.27248 20.1623C6.31797 20.2684 6.37862 20.3594 6.48476 20.42C6.5909 20.4807 6.71221 20.4807 6.81834 20.4807C6.93965 20.4807 7.06095 20.4655 7.18225 20.4503C7.2429 20.4503 7.30355 20.4807 7.33388 20.5262C7.44002 20.7991 7.57648 20.981 7.78876 21.0114C7.80393 21.0114 7.81909 21.0114 7.83425 21.0114C7.87974 21.0114 7.95555 20.9962 8.04653 20.9356C8.12234 20.8749 8.24365 20.9204 8.3043 20.9962C8.34979 21.072 8.41044 21.1175 8.47109 21.163C8.68337 21.3753 9.1989 21.4814 9.62346 21.4814C9.8509 21.4814 10.0632 21.4511 10.1845 21.3904C10.3664 21.2995 10.3664 21.1782 10.3513 21.1175C10.3361 21.0265 10.3209 20.9204 10.3058 20.8294C10.3058 20.8143 10.3209 20.8143 10.3209 20.8294C10.3513 20.8901 10.3816 20.9507 10.4574 20.9659C10.4726 20.9659 10.4726 20.9659 10.4877 20.9659C10.609 20.9659 10.791 21.0114 10.8213 21.1175C10.8365 21.1782 10.8668 21.2236 10.8971 21.2843C10.9729 21.3904 11.1094 21.5269 11.3975 21.5421H11.4127C11.7462 21.5421 12.004 21.4359 12.1708 21.2237C12.186 21.2085 12.186 21.1933 12.2011 21.1782C12.2618 21.0872 12.4437 21.0872 12.5196 21.163C12.6105 21.2388 12.7167 21.2843 12.838 21.2843C12.8531 21.2843 12.8835 21.2843 12.8986 21.2843C13.0502 21.2691 13.1716 21.1933 13.2777 21.0569C13.3383 20.9659 13.3838 20.8597 13.4142 20.7384C13.4293 20.7081 13.4748 20.693 13.5051 20.7233C13.5658 20.7839 13.6719 20.8446 13.8236 20.8446C13.8539 20.8446 13.8994 20.8446 13.9449 20.8294C14.2329 20.7688 14.3846 20.5262 14.4452 20.2684C14.4452 20.2532 14.4604 20.2532 14.4604 20.2684C14.5362 20.3594 14.6727 20.4655 14.9001 20.4655C14.9153 20.4655 14.9304 20.4655 14.9304 20.4655C15.0517 20.4655 15.1579 20.4049 15.2337 20.3139C15.3247 20.1926 15.355 20.0106 15.3702 19.8438C15.3702 19.7983 15.4005 19.7529 15.4611 19.7225C15.7037 19.6164 16.007 19.389 16.098 19.2373C16.098 19.2373 16.098 19.2222 16.1131 19.2222C16.1283 19.1767 16.1738 19.1463 16.2041 19.1463C16.4012 19.116 16.477 19.0705 16.5529 19.0402C16.6135 19.0099 16.659 18.9947 16.8106 18.9644C17.9175 18.7976 18.1298 18.7521 18.3724 18.6005C18.7363 18.3579 18.7515 18.0243 18.7666 17.7059C18.7818 17.433 18.7969 17.1297 19.0092 16.7658C19.085 16.6293 19.176 16.4777 19.267 16.2957C19.4338 15.9925 19.6612 15.5679 19.828 15.3405C19.8583 15.295 19.919 15.2798 19.9645 15.3102C20.3435 15.4466 20.6771 15.5983 20.7378 15.6589Z" fill="white"/>
<path d="M9.97209 18.9644C9.9266 19.3434 9.89628 19.859 9.95693 20.5261C9.97209 20.7081 10.0024 20.9052 10.0327 21.1023C9.98725 21.1326 9.82046 21.1781 9.54753 21.163C9.1533 21.1478 8.75907 21.0568 8.63776 20.9204L8.6226 20.9052C8.53162 20.8294 8.45581 20.7687 8.45581 20.6323C8.45581 20.5868 8.47097 20.5413 8.51646 20.4655C8.54679 20.4351 8.57711 20.3897 8.60744 20.329C8.66809 20.238 8.75907 20.1319 8.85004 19.9803C9.10781 19.5557 9.19879 19.4192 9.32009 19.2524C9.33525 19.2373 9.33525 19.2221 9.35042 19.207C9.42623 19.116 9.50204 18.9947 9.63851 18.7976C9.72948 18.6611 9.8053 18.5398 9.88111 18.4488C9.98725 18.2972 10.0631 18.2214 10.1086 18.1759C10.1086 18.2365 10.0934 18.3275 10.0782 18.4185C10.0176 18.6004 9.98725 18.7672 9.97209 18.9644Z" fill="white"/>
<path d="M9.77556 12.9903C9.77556 13.0055 9.77556 13.0055 9.77556 12.9903C9.71491 13.0662 9.65426 13.1571 9.57845 13.3088C9.38133 13.7333 9.38133 13.9759 9.38133 14.173C9.38133 14.2792 9.38133 14.355 9.35101 14.446C9.33584 14.5066 9.30552 14.5824 9.26003 14.6583C9.15389 14.916 9.00226 15.2496 9.06291 15.7045C8.97194 15.659 8.83547 15.5529 8.80515 15.5074C8.80515 15.477 8.78998 15.4619 8.78998 15.4316C8.75966 15.2951 8.74449 15.2041 8.82031 14.9918C9.06291 14.446 9.09324 14.3095 9.1084 14.1579C9.1084 14.1276 9.12356 14.0972 9.12356 14.0517C9.16905 13.8395 9.19938 13.6575 9.21454 13.5059C9.24487 13.2784 9.27519 13.1268 9.35101 13.0207C9.38133 12.9752 9.45715 12.96 9.56328 12.96C9.60877 12.96 9.65426 12.96 9.71491 12.9752H9.73008C9.77556 12.9903 9.77556 12.9903 9.77556 12.9903Z" fill="white"/>
<path d="M9.47259 18.4035C9.45742 18.267 9.44226 18.1457 9.38161 18.0093C9.38161 18.0093 9.36645 17.9789 9.36645 17.9638C9.35128 17.9486 9.35128 17.9334 9.33612 17.9183L9.32096 17.9031C9.3058 17.888 9.3058 17.888 9.29063 17.888L9.27547 17.8728C9.26031 17.8728 9.26031 17.8576 9.24515 17.8576H9.22998C9.15417 17.8273 9.07835 17.797 8.98738 17.7818C8.97222 17.7818 8.95705 17.7818 8.95705 17.7818C8.94189 17.7818 8.94189 17.7818 8.92673 17.7818H8.91156C8.8964 17.7818 8.88124 17.797 8.85091 17.797C8.83575 17.797 8.83575 17.8121 8.82059 17.8121L8.80542 17.8273C8.79026 17.8425 8.79026 17.8425 8.7751 17.8576L8.75994 17.8728V17.888C8.72961 17.9334 8.69929 17.9789 8.66896 18.0244C8.59315 18.1306 8.51733 18.2519 8.44152 18.358C8.3657 18.4641 8.30505 18.5551 8.22924 18.6613C8.18375 18.7219 8.15342 18.7674 8.10794 18.828C8.10794 18.8432 8.09277 18.8432 8.09277 18.8584C8.13826 18.8735 8.18375 18.8735 8.22924 18.8887C8.33538 18.9039 8.44152 18.919 8.53249 18.9342C8.74477 18.9645 8.97221 18.9797 9.18449 18.9645C9.19966 18.9645 9.19966 18.9645 9.21482 18.9645C9.26031 18.8887 9.33612 18.7977 9.41194 18.6764C9.45742 18.6158 9.50291 18.5551 9.53324 18.4945C9.48775 18.4793 9.47259 18.4338 9.47259 18.4035Z" fill="white"/>
<path d="M8.69925 19.2977C8.68408 19.4645 8.50213 19.8891 8.21404 20.2985C7.97143 20.632 7.81981 20.723 7.78948 20.723C7.66818 20.7079 7.56204 20.4198 7.47106 20.1317C7.44074 20.0104 7.39525 19.9042 7.38009 19.7981C7.31943 19.5858 7.30427 19.2826 7.31943 19.1006C7.56204 19.2371 7.9866 19.2674 8.59311 19.2674C8.62343 19.2826 8.66892 19.2826 8.69925 19.2977Z" fill="white"/>
<path d="M8.27469 17.9334C8.16855 18.1002 8.06241 18.2518 7.95627 18.4034C7.89562 18.4792 7.85013 18.5551 7.78948 18.6309C7.75915 18.6764 7.71366 18.7218 7.68334 18.7673C7.59236 18.7522 7.51655 18.7218 7.42557 18.7067C7.34976 18.6915 7.2891 18.6612 7.21329 18.6309C7.19813 18.6309 7.18297 18.6157 7.1678 18.6157C7.15264 18.6005 7.13748 18.5702 7.12231 18.5551C7.15264 18.5096 7.1678 18.4489 7.19813 18.4034C7.24362 18.3124 7.28911 18.2215 7.34976 18.1305C7.44073 17.9789 7.54687 17.8121 7.71366 17.7059C7.72883 17.7059 7.72883 17.6908 7.74399 17.6908C7.80464 17.6604 7.86529 17.6301 7.9411 17.615C7.95627 17.615 8.00176 17.615 8.03208 17.615H8.04724C8.04724 17.615 8.04724 17.615 8.06241 17.615C8.07757 17.615 8.09273 17.6301 8.12306 17.6301C8.12306 17.6301 8.13822 17.6301 8.13822 17.6453C8.15338 17.6604 8.16855 17.6604 8.18371 17.6756C8.15338 17.6604 8.21404 17.7211 8.21404 17.7059C8.24436 17.7969 8.25952 17.8424 8.27469 17.9334Z" fill="white"/>
<path d="M7.45568 17.4934C7.25857 17.645 7.1221 17.8573 7.01596 18.0847C6.95531 18.206 6.89466 18.3273 6.83401 18.4486C6.83401 18.4638 6.81884 18.479 6.81884 18.479C6.75819 18.4638 6.69754 18.4486 6.65205 18.4335C6.5914 18.4183 6.53075 18.388 6.4701 18.3728C6.43978 18.3577 6.42461 18.3425 6.39429 18.3273C6.45494 18.2212 6.51559 18.1151 6.5914 18.0089C6.68238 17.8725 6.78852 17.7208 6.89466 17.5995C6.94015 17.554 6.98564 17.4934 7.03112 17.4631C7.09177 17.4327 7.15243 17.4327 7.22824 17.4479C7.30405 17.4479 7.37987 17.4479 7.44052 17.4782C7.42536 17.4782 7.44052 17.4934 7.45568 17.4934Z" fill="white"/>
<path d="M7.15241 20.0715C7.13725 20.0866 7.13725 20.0866 7.12209 20.1018H7.10693C7.06144 20.1018 7.01595 20.1169 6.97046 20.1169C6.87948 20.1169 6.78851 20.1321 6.69753 20.1169C6.65204 20.1169 6.60655 20.1018 6.57623 20.0715C6.5459 20.026 6.53074 19.935 6.51558 19.8743C6.45493 19.5408 6.45493 19.2072 6.48525 18.8736C6.65204 18.9342 6.834 18.9797 7.01595 19.0101C6.97046 19.3133 7.04627 19.753 7.0766 19.8743C7.12209 19.935 7.13725 20.0108 7.15241 20.0715Z" fill="white"/>
<path d="M6.60608 17.3874C6.45445 17.5694 6.31799 17.7665 6.19669 17.9788C6.1512 18.0546 6.09055 18.1455 6.04506 18.2365C5.98441 18.2214 5.92376 18.191 5.87827 18.1607C5.83278 18.1304 5.78729 18.1001 5.75697 18.0697C5.7418 18.0546 5.71148 18.0394 5.69631 18.0242C5.69631 18.0242 5.68115 18.0242 5.68115 18.0091C5.69632 17.9636 5.72664 17.9333 5.72664 17.9029C5.75697 17.8271 5.78729 17.7665 5.83278 17.7058C5.90859 17.5845 5.98441 17.4632 6.07538 17.3419C6.10571 17.2964 6.13604 17.2509 6.19669 17.2358C6.24217 17.2206 6.30283 17.2358 6.34831 17.2358C6.43929 17.2509 6.53027 17.3116 6.60608 17.3874Z" fill="white"/>
<path d="M5.43895 18.1913C5.43895 18.1762 5.45412 18.1762 5.43895 18.1913C5.4996 18.252 5.54509 18.2975 5.60574 18.343C5.63607 18.3581 5.65123 18.3884 5.68156 18.4036C5.68156 18.4036 5.68156 18.4036 5.68156 18.4188C5.62091 18.6765 5.57542 18.9495 5.57542 19.2224C5.57542 19.2376 5.56026 19.2376 5.56026 19.2224C5.48444 18.904 5.39346 18.3885 5.43895 18.1913Z" fill="white"/>
<path d="M6.18179 18.7523C6.15146 18.9798 6.1363 19.2072 6.15146 19.4346C6.15146 19.5559 6.16663 19.6772 6.18179 19.8137C6.15146 19.8137 6.12114 19.8137 6.09081 19.8137H6.07565H6.06049C6.03016 19.7985 6.03016 19.7985 5.99984 19.7834C5.96951 19.7682 5.93919 19.7227 5.90886 19.6772C5.84821 19.5711 5.83305 19.4498 5.83305 19.3285C5.81788 19.1011 5.84821 18.8585 5.8937 18.631C5.92402 18.6462 5.96951 18.6613 6.015 18.6765C6.07565 18.7068 6.12114 18.7372 6.18179 18.7523Z" fill="white"/>
<g opacity="0.8">
<path opacity="0.8" d="M12.156 26.9855C11.2614 26.9855 10.3668 26.9249 9.62379 26.8642L9.51765 26.8491L9.41151 26.8339C9.25988 26.8187 9.09309 26.7884 8.94146 26.7732C8.25914 26.6974 7.31904 26.5913 6.25765 26.1061L6.13635 26.0454L6.01504 25.9848C3.99839 24.8476 3.25542 23.1797 2.70956 21.9666C2.64891 21.8453 2.58825 21.7089 2.54277 21.5876C2.31532 21.1175 2.1637 20.6778 2.04239 20.2987L2.02723 20.2381L1.98174 20.1926C1.39039 18.1001 1.61784 16.6293 2.77021 14.9463L2.83086 14.8553L2.89151 14.7643C2.96732 14.6733 3.04314 14.5672 3.11895 14.4762C3.22509 14.3398 3.33123 14.1881 3.45253 14.0517C3.52835 13.9607 3.589 13.8545 3.63449 13.7484L3.77095 13.4148C3.8316 13.2632 3.86193 13.1116 3.87709 12.9599C3.99839 11.6105 4.65039 10.64 4.96881 10.1548C4.99914 10.1245 5.02946 10.0639 5.04463 10.0487L5.12044 9.92739L5.15076 9.89706C5.19625 9.82125 5.27207 9.63929 5.33272 9.45734C5.36304 9.33604 5.4237 9.13892 5.48435 8.97213V8.95697C5.545 8.39595 5.68146 7.83492 5.87858 7.30422L5.89374 7.25874L5.9089 7.21325C5.93923 7.12227 5.96955 7.04646 5.99988 6.94032C6.13635 6.53092 6.36379 5.83343 6.98546 5.06013L7.18258 4.81753L7.37969 4.63558C8.85048 3.30125 10.4881 3.19511 11.0339 3.14962H11.0642H11.1249C11.2007 3.14962 11.2765 3.14962 11.3523 3.14962C12.0043 3.14962 12.6412 3.28609 13.2477 3.54385C13.3538 3.58934 13.4751 3.60451 13.5813 3.60451C13.7026 3.60451 13.8087 3.57418 13.9149 3.51353C14.4759 3.19511 15.4918 2.60376 16.7958 2.45213C16.8564 2.43697 16.9171 2.43697 16.9626 2.43697C17.0839 2.42181 17.2658 2.40665 17.4781 2.37632C17.8723 2.34599 18.4637 2.30051 19.1005 2.30051C20.2074 2.30051 21.1172 2.43697 21.8905 2.69474L21.936 2.7099L21.9815 2.72506C23.801 3.40739 24.5743 4.27167 25.2263 5.09046C25.3931 5.3179 25.4841 5.40888 25.666 5.59083L25.7721 5.68181L25.848 5.77278L25.9086 5.81827C26.2119 6.06088 26.7881 6.5006 27.3036 7.33455L27.3946 7.48618L27.4704 7.63781C28.2134 9.15408 27.9708 10.5187 27.8494 11.2465V11.292C27.7585 11.8227 27.6068 12.3534 27.3946 12.8538L27.3794 12.8993C27.3794 12.9145 27.3794 12.9145 27.3642 12.9448C27.3491 12.9903 27.3491 13.0358 27.3491 13.0812L27.3339 13.1419C27.2884 13.5968 27.1823 14.0365 27.0307 14.4611C26.8032 15.1434 26.4848 15.7802 26.0602 16.3564C25.6508 16.9478 25.1808 17.433 24.6653 17.812C24.4378 17.9788 24.2559 18.1911 24.1194 18.4489C23.9829 18.7066 23.9223 18.9796 23.9223 19.2677C23.9223 19.6164 23.8768 19.9803 23.8161 20.3291C23.5735 21.6331 23.0277 22.5125 22.6789 23.0432L22.1786 23.7862C21.2991 25.0144 20.2529 25.8028 18.9944 26.1971L18.9337 26.2122C18.8276 26.2425 18.7215 26.2729 18.6153 26.288L18.5395 26.3032C18.1908 26.3638 17.842 26.3942 17.4933 26.3942C17.4326 26.3942 17.372 26.3942 17.3113 26.3942H17.2962C17.2658 26.3942 17.2355 26.3942 17.2052 26.3942C17.1749 26.3942 17.1142 26.3942 16.9929 26.3942H16.9474H16.9019C16.7351 26.3942 16.5229 26.4093 16.3409 26.4093C16.0831 26.4245 15.8405 26.47 15.5979 26.561C14.6882 26.8339 13.5813 26.9855 12.156 26.9855Z" stroke="url(#paint1_linear_9851_71491)" stroke-width="0.140028" stroke-miterlimit="10"/>
<path opacity="0.8" d="M12.156 25.7271C11.2917 25.7271 10.4426 25.6664 9.7148 25.6058H9.63898L9.56317 25.5906C9.39638 25.5603 9.21443 25.5451 9.04763 25.53C8.4108 25.4542 7.62233 25.3783 6.77322 24.9689L6.68224 24.9235L6.60643 24.878C4.95368 23.953 4.33201 22.5581 3.8468 21.436C3.78615 21.2995 3.7255 21.1631 3.66485 21.0115C3.46773 20.6172 3.33127 20.223 3.22513 19.8894L3.20996 19.8439L3.1948 19.7984C2.70959 18.0699 2.87638 16.9782 3.81647 15.6135L3.86196 15.5529L3.90745 15.4922C3.98327 15.3861 4.05908 15.2951 4.13489 15.1889C4.3775 14.8705 4.6201 14.5521 4.96885 14.173C5.04466 14.0972 5.09015 13.9759 5.10531 13.8698L5.12047 13.521L5.10531 13.3846V13.2481C5.13564 12.1261 5.69666 11.2921 5.99992 10.8372C6.03024 10.7917 6.07573 10.7311 6.09089 10.7008L6.13638 10.6249L6.18187 10.5643C6.24252 10.4733 6.37898 10.1549 6.50029 9.86681C6.54578 9.74551 6.60643 9.5029 6.68224 9.30579C6.6974 9.24514 6.6974 9.22997 6.71257 9.09351C6.75805 8.62346 6.87936 8.15342 7.03098 7.7137L7.04615 7.68337L7.06131 7.65304C7.1068 7.53174 7.13712 7.44076 7.18261 7.31946C7.30391 6.95556 7.48587 6.42486 7.95591 5.83351L8.09238 5.66672L8.22884 5.54542C9.25991 4.62049 10.3668 4.43853 11.1249 4.39305H11.1553H11.1856C11.2462 4.39305 11.2917 4.39305 11.3524 4.39305C11.9892 4.39305 12.7625 4.6963 13.1719 4.89342C13.2629 4.93891 13.369 4.96923 13.4752 4.96923C13.5813 4.96923 13.6874 4.95407 13.7936 4.92374C14.0514 4.83277 14.294 4.72663 14.5214 4.60532C15.0369 4.30207 15.886 3.81686 16.9474 3.69556C17.0081 3.6804 17.0536 3.6804 17.0991 3.6804C17.2052 3.66523 17.372 3.65007 17.5843 3.61974C17.9482 3.58942 18.494 3.54393 19.0854 3.54393C20.0407 3.54393 20.8291 3.65007 21.466 3.87751L21.4963 3.89267L21.5266 3.90784C23.0429 4.48402 23.6494 5.13602 24.2256 5.879C24.4075 6.1216 24.544 6.28839 24.8169 6.531L24.8776 6.59165L24.9382 6.6523C24.9989 6.71295 25.0595 6.75844 25.1202 6.80393C25.378 7.00104 25.8177 7.34979 26.1967 7.98663L26.2574 8.0776L26.3029 8.18374C26.8639 9.32095 26.682 10.3975 26.5758 11.0343V11.0798C26.5 11.5196 26.3787 11.9441 26.1967 12.3535C26.1513 12.4596 26.1209 12.5658 26.0906 12.6871C26.0754 12.7629 26.0603 12.8387 26.0603 12.8994L26.0451 12.96C25.9996 13.3239 25.9238 13.6878 25.8025 14.0366C25.6206 14.5976 25.3476 15.1283 25.014 15.5983C24.4985 16.3262 23.9072 16.8417 23.1945 17.1753C23.0277 17.2511 22.8761 17.3724 22.77 17.5392C22.6638 17.6908 22.6032 17.8879 22.588 18.0699C22.588 18.1457 22.588 18.2063 22.588 18.2518C22.6183 18.7977 22.6638 19.4194 22.5425 20.0714C22.3454 21.1328 21.8905 21.8454 21.5569 22.3761C21.5569 22.3761 20.0103 24.5292 18.6002 24.9689L18.4486 25.0144L18.2818 25.0448C18.0088 25.0902 17.7359 25.1206 17.4478 25.1206C17.4023 25.1206 17.3417 25.1206 17.281 25.1206C17.2507 25.1206 17.2052 25.1206 17.1597 25.1206C17.0991 25.1206 17.0081 25.1206 16.8716 25.1357H16.8413H16.811C16.2651 25.1509 15.7647 25.1661 15.6131 25.1964C15.5373 25.2115 15.4615 25.2267 15.3857 25.257C14.6427 25.5755 13.5965 25.7271 12.156 25.7271Z" stroke="url(#paint2_linear_9851_71491)" stroke-width="0.130021" stroke-miterlimit="10"/>
<path opacity="0.8" d="M12.1558 24.4834C11.337 24.4834 10.5182 24.4227 9.82073 24.3773H9.7904H9.76008C9.56296 24.3469 9.38101 24.3318 9.21422 24.3166C8.62287 24.2559 8.00119 24.1801 7.33403 23.8769L7.28854 23.8617L7.24305 23.8466C5.95422 23.1187 5.46901 22.0422 5.01412 20.996C4.95347 20.8443 4.87766 20.6927 4.80185 20.5411C4.65022 20.2378 4.52892 19.9042 4.43794 19.5858V19.5706V19.5555C4.04371 18.1757 4.14985 17.4782 4.87766 16.4168L4.89282 16.3865L4.90799 16.3561C4.99896 16.25 5.07478 16.1439 5.15059 16.0529C5.49933 15.598 5.80259 15.2038 6.48491 14.5669C6.5304 14.5214 6.57589 14.4608 6.59105 14.385C6.60622 14.3243 6.60622 14.2485 6.57589 14.1879L6.45459 13.8391C6.42426 13.733 6.4091 13.6117 6.4091 13.5055V13.4146V13.3387C6.43943 12.5806 6.83366 11.9893 7.09143 11.595C7.13691 11.5344 7.16724 11.4737 7.19757 11.4282L7.22789 11.3827L7.25822 11.3373C7.39468 11.1553 7.62212 10.6246 7.74343 10.3062C7.77375 10.2 7.84957 9.94228 7.92538 9.74517C7.97087 9.59354 8.00119 9.44191 8.01636 9.29028C8.06184 8.91121 8.13766 8.53214 8.27412 8.1834V8.16824V8.15307C8.33477 8.00145 8.38026 7.88014 8.41059 7.75884C8.51673 7.44042 8.63803 7.07652 8.97161 6.66712L9.03226 6.59131L9.09291 6.53066C9.82073 5.86349 10.6244 5.74219 11.2309 5.6967H11.246H11.2612C11.2915 5.6967 11.337 5.6967 11.3673 5.6967C11.9738 5.6967 12.4287 5.93931 12.732 6.1061L12.8078 6.13642H12.823C12.9139 6.18191 12.9746 6.2274 13.0504 6.25772C13.2324 6.3487 13.4598 6.37903 13.6569 6.31838C14.0815 6.21224 14.7335 5.95447 15.158 5.71186H15.1732C15.6281 5.43893 16.3256 5.0447 17.1444 4.95373C17.1898 4.93856 17.2505 4.93856 17.296 4.93856C17.387 4.9234 17.5537 4.90824 17.7357 4.89307C18.0693 4.86275 18.5848 4.81726 19.1155 4.81726C19.9343 4.81726 20.5863 4.90824 21.0867 5.07503H21.1018H21.117C22.33 5.52991 22.7849 6.01512 23.2701 6.65196C23.4672 6.90972 23.6643 7.15233 24.0283 7.47075L24.0586 7.50107L24.0889 7.5314C24.1799 7.62238 24.286 7.71335 24.4073 7.80433C24.6196 7.97112 24.9229 8.19856 25.1806 8.63828L25.211 8.68377L25.2413 8.72926C25.6203 9.51772 25.499 10.2607 25.4081 10.8217V10.8672C25.3474 11.216 25.2564 11.5495 25.1048 11.8831C25.029 12.0651 24.9683 12.2622 24.938 12.4593C24.9229 12.5806 24.9077 12.6716 24.8925 12.7474L24.8774 12.808C24.847 13.0961 24.7864 13.3691 24.6954 13.642C24.559 14.0817 24.3467 14.4911 24.0737 14.8702C23.6189 15.5373 23.1033 15.9467 22.421 16.159C22.0874 16.2652 21.8145 16.4774 21.6325 16.7655L21.5719 16.8413L21.5112 16.9172C21.3444 17.1143 21.3899 17.8724 21.4203 18.3273C21.4506 18.8277 21.4809 19.3432 21.3899 19.8284C21.2383 20.6624 20.8744 21.2234 20.556 21.7086C20.556 21.7086 19.3733 23.422 18.2967 23.7404L18.2209 23.7707L18.1451 23.7859C17.948 23.8162 17.7357 23.8466 17.5234 23.8466C17.4779 23.8466 17.4324 23.8466 17.3718 23.8466C17.3263 23.8466 17.2808 23.8466 17.2202 23.8466C17.1444 23.8466 17.0382 23.8466 16.8563 23.8617H16.8411H16.8259C16.1133 23.892 15.6736 23.9072 15.431 23.9527C15.2642 23.983 15.1125 24.0285 14.9609 24.0892C14.3089 24.3469 13.4295 24.4834 12.1558 24.4834Z" stroke="url(#paint3_linear_9851_71491)" stroke-width="0.130021" stroke-miterlimit="10"/>
</g>
</g>
<defs>
<radialGradient id="paint0_radial_9851_71491" cx="0" cy="0" r="1" gradientUnits="userSpaceOnUse" gradientTransform="translate(14.6434 16.3253) rotate(90) scale(15.8065)">
<stop offset="0.1667" stop-color="#073183"/>
<stop offset="1" stop-color="#0054F9"/>
</radialGradient>
<linearGradient id="paint1_linear_9851_71491" x1="2.37485" y1="1.59858" x2="27.0536" y2="27.8812" gradientUnits="userSpaceOnUse">
<stop offset="0.2057" stop-color="#89D0FF"/>
<stop offset="0.3984" stop-color="#EBBF9A"/>
<stop offset="0.6015" stop-color="#EB80E7"/>
<stop offset="0.8411" stop-color="#A281FF"/>
</linearGradient>
<linearGradient id="paint2_linear_9851_71491" x1="3.62849" y1="2.8643" x2="25.7876" y2="26.6211" gradientUnits="userSpaceOnUse">
<stop offset="0.2057" stop-color="#89D0FF"/>
<stop offset="0.3984" stop-color="#EBBF9A"/>
<stop offset="0.6015" stop-color="#EB80D3"/>
<stop offset="0.8411" stop-color="#A281FF"/>
</linearGradient>
<linearGradient id="paint3_linear_9851_71491" x1="4.89816" y1="4.11439" x2="24.5355" y2="25.3549" gradientUnits="userSpaceOnUse">
<stop offset="0.2057" stop-color="#89D0FF"/>
<stop offset="0.3984" stop-color="#EBBF9A"/>
<stop offset="0.6015" stop-color="#A280EB"/>
<stop offset="0.8411" stop-color="#A281FF"/>
</linearGradient>
<clipPath id="clip0_9851_71491">
<rect width="28.1421" height="28.1421" fill="white" transform="translate(0.571777 0.78421)"/>
</clipPath>
</defs>
</svg>
