<svg width="21" height="22" viewBox="0 0 21 22" fill="none" xmlns="http://www.w3.org/2000/svg">
<path d="M3.93833 3.72656C3.93833 3.55251 3.86919 3.38559 3.74612 3.26252C3.62305 3.13945 3.45613 3.07031 3.28208 3.07031C3.10803 3.07031 2.94111 3.13945 2.81804 3.26252C2.69497 3.38559 2.62583 3.55251 2.62583 3.72656V15.2674L1.1217 13.7619C0.998478 13.6387 0.831347 13.5695 0.657079 13.5695C0.482811 13.5695 0.31568 13.6387 0.192454 13.7619C0.0692278 13.8852 4.1059e-09 14.0523 0 14.2266C-4.1059e-09 14.4008 0.0692278 14.568 0.192454 14.6912L2.81745 17.3149L2.82664 17.3241C2.94985 17.4442 3.11555 17.5108 3.28764 17.5093C3.45972 17.5078 3.62426 17.4384 3.74539 17.3162L6.37039 14.6912C6.43141 14.6303 6.47982 14.5579 6.51288 14.4783C6.54593 14.3986 6.56298 14.3133 6.56304 14.227C6.5631 14.1408 6.54617 14.0554 6.51323 13.9757C6.48029 13.896 6.43198 13.8236 6.37105 13.7626C6.31012 13.7016 6.23777 13.6532 6.15813 13.6201C6.07849 13.5871 5.99311 13.57 5.90689 13.5699C5.82066 13.5699 5.73526 13.5868 5.65558 13.6198C5.57589 13.6527 5.50347 13.701 5.44245 13.7619L3.93833 15.2674V3.72656ZM8.53208 5.03906C8.53208 4.86501 8.60122 4.69809 8.72429 4.57502C8.84736 4.45195 9.01428 4.38281 9.18833 4.38281H18.3758C18.5499 4.38281 18.7168 4.45195 18.8399 4.57502C18.9629 4.69809 19.0321 4.86501 19.0321 5.03906C19.0321 5.21311 18.9629 5.38003 18.8399 5.5031C18.7168 5.62617 18.5499 5.69531 18.3758 5.69531H9.18833C9.01428 5.69531 8.84736 5.62617 8.72429 5.5031C8.60122 5.38003 8.53208 5.21311 8.53208 5.03906ZM9.18833 8.32031C9.01428 8.32031 8.84736 8.38945 8.72429 8.51252C8.60122 8.63559 8.53208 8.80251 8.53208 8.97656C8.53208 9.15061 8.60122 9.31753 8.72429 9.4406C8.84736 9.56367 9.01428 9.63281 9.18833 9.63281H15.7508C15.9249 9.63281 16.0918 9.56367 16.2149 9.4406C16.3379 9.31753 16.4071 9.15061 16.4071 8.97656C16.4071 8.80251 16.3379 8.63559 16.2149 8.51252C16.0918 8.38945 15.9249 8.32031 15.7508 8.32031H9.18833ZM9.18833 12.2578C9.01428 12.2578 8.84736 12.327 8.72429 12.45C8.60122 12.5731 8.53208 12.74 8.53208 12.9141C8.53208 13.0881 8.60122 13.255 8.72429 13.3781C8.84736 13.5012 9.01428 13.5703 9.18833 13.5703H13.1258C13.2999 13.5703 13.4668 13.5012 13.5899 13.3781C13.7129 13.255 13.7821 13.0881 13.7821 12.9141C13.7821 12.74 13.7129 12.5731 13.5899 12.45C13.4668 12.327 13.2999 12.2578 13.1258 12.2578H9.18833ZM9.18833 16.1953C9.01428 16.1953 8.84736 16.2645 8.72429 16.3875C8.60122 16.5106 8.53208 16.6775 8.53208 16.8516C8.53208 17.0256 8.60122 17.1925 8.72429 17.3156C8.84736 17.4387 9.01428 17.5078 9.18833 17.5078H10.5008C10.6749 17.5078 10.8418 17.4387 10.9649 17.3156C11.0879 17.1925 11.1571 17.0256 11.1571 16.8516C11.1571 16.6775 11.0879 16.5106 10.9649 16.3875C10.8418 16.2645 10.6749 16.1953 10.5008 16.1953H9.18833Z" fill="#805AD5"/>
</svg>
